<?xml version="1.0" encoding="UTF-8" standalone="no"?>
<svg
   xmlns:dc="http://purl.org/dc/elements/1.1/"
   xmlns:cc="http://creativecommons.org/ns#"
   xmlns:rdf="http://www.w3.org/1999/02/22-rdf-syntax-ns#"
   xmlns:svg="http://www.w3.org/2000/svg"
   xmlns="http://www.w3.org/2000/svg"
   width="297mm"
   height="210mm"
   viewBox="0 0 1052.3622 744.09448"
   id="svg2"
   version="1.1">
  <defs
     id="defs4" />
  <metadata
     id="metadata7">
    <rdf:RDF>
      <cc:Work
         rdf:about="">
        <dc:format>image/svg+xml</dc:format>
        <dc:type
           rdf:resource="http://purl.org/dc/dcmitype/StillImage" />
        <dc:title></dc:title>
      </cc:Work>
    </rdf:RDF>
  </metadata>
  <g
     id="layer1"
     transform="translate(0,-308.26772)">
    <path
       style="fill:#0a243f;fill-opacity:1"
       d="m 59.518151,1049.6264 c -23.287244,-4.566 -42.651374,-20.5668 -50.6012006,-41.8126 -3.6869266,-9.85329 -3.9062653,-12.49648 -3.9085025,-47.10364 -0.00123,-21.27348 -0.2158253,-31.4395 -0.6631925,-31.4395 -0.4557312,0 -0.4557312,-0.35815 0,-1.15286 0.451559,-0.78734 0.6619573,-58.36794 0.6637248,-181.63385 0.00216,-155.66025 0.1311404,-181.21875 0.9381626,-185.84512 2.3794451,-13.64211 9.3935362,-26.07916 20.2968002,-35.98925 8.887391,-8.07785 19.86651,-13.7179 32.410618,-16.64956 3.762343,-0.8793 19.349827,-0.99963 166.351919,-1.28414 l 162.20055,-0.31391 5.37566,-8.34414 c 19.31553,-29.98158 40.55167,-65.91824 60.22642,-101.91761 5.55382,-10.16197 10.10344,-18.32011 10.11026,-18.12919 0.0213,0.58637 -9.21301,25.84874 -13.59787,37.20148 -46.67162,120.83522 -104.94783,219.68521 -179.20006,303.96482 -60.7417,68.94452 -134.85476,130.40881 -220.408235,182.79138 -8.254802,5.05423 -16.445718,10.07096 -18.202056,11.14829 -1.756338,1.07736 -2.618542,1.83686 -1.916006,1.68785 0.702536,-0.149 18.521386,-5.56047 39.597447,-12.02544 21.076071,-6.465 48.37915,-14.83309 60.67352,-18.59578 12.29436,-3.76267 27.38291,-8.38155 33.53009,-10.26416 l 11.17671,-3.42291 5.64559,-6.22453 c 6.5078,-7.17512 23.64139,-26.96972 30.15031,-34.83295 2.82194,-3.40912 3.85828,-5.01464 2.84353,-4.40525 -19.62681,11.78645 -39.33451,23.24793 -59.07684,34.35758 -6.67409,3.75571 -12.78136,7.20865 -13.5717,7.67317 -0.79036,0.46451 -1.43701,0.73795 -1.43701,0.60764 0,-0.36688 23.68569,-18.2582 46.30348,-34.97593 44.84542,-33.14718 54.45537,-40.43473 56.63852,-42.95103 6.38042,-7.35401 36.46012,-48.90139 50.44288,-69.67393 53.984,-80.19759 100.31424,-165.18477 143.86946,-263.91089 17.56517,-39.81473 41.07101,-98.22199 41.74076,-103.71722 0.30603,-2.51099 0.90154,-3.08842 24.9741,-24.21635 l 24.66058,-21.64407 0.31933,227.79084 0.31933,227.79082 30.33679,-9.29389 30.33675,-9.29389 0.16053,-218.56795 c 0.0883,-120.21237 0.29351,-218.56794 0.45604,-218.56794 0.16264,0 31.56069,8.19757 69.77369,18.21685 38.21295,10.01927 94.05091,24.65366 124.08429,32.5209 30.0334,7.86723 59.13273,15.4937 64.66518,16.9477 5.53248,1.45401 14.7293,3.86469 20.4374,5.35706 5.70811,1.49234 10.88131,2.85145 11.49604,3.02019 1.05514,0.28969 1.11768,3.76983 1.11768,62.23093 l 0,61.92412 58.59783,0.1804 c 57.92096,0.1782 58.65446,0.19529 63.49985,1.47498 23.0869,6.09723 40.4472,20.87442 48.1494,40.98461 4.4536,11.6282 4.1406,-6.76483 3.9445,231.86381 -0.1679,204.0948 -0.2384,215.9648 -1.3055,219.62946 -1.8716,6.4262 -4.6368,12.8913 -7.5364,17.621 -9.9287,16.1939 -26.6081,27.5794 -45.7306,31.2161 l -6.45611,1.2277 -464.53099,-0.043 c -455.70266,-0.042 -464.64207,-0.065 -470.373449,-1.1879 z M 477.63162,965.36941 c -0.0172,-37.34775 -0.10992,-67.97866 -0.20652,-68.06876 -0.0964,-0.09 -3.03781,0.24081 -6.53614,0.73538 -6.05352,0.85579 -37.12025,5.05598 -156.12841,21.1086 -28.97958,3.90893 -84.59164,11.41674 -123.58234,16.68392 -38.99071,5.26724 -82.96304,11.20563 -97.716277,13.19649 -14.753241,1.99083 -37.026806,4.99861 -49.496816,6.68388 l -22.672729,3.0642 0.0085,17.28428 c 0.01054,19.45774 0.269709,21.06827 4.804617,29.8798 7.708218,14.9774 23.575972,25.1656 42.042884,26.9946 2.681328,0.2656 95.918641,0.4512 207.194071,0.4127 l 202.31893,-0.07 -0.0309,-67.90489 z m 111.11782,-7.5648 0,-75.7677 -1.75633,0.32226 c -0.96599,0.17722 -14.29796,1.99895 -29.62652,4.04828 l -27.87017,3.72601 -0.3803,19.71759 c -0.63923,33.14045 -1.17399,122.44105 -0.73715,123.10065 0.27542,0.4159 10.30025,0.6206 30.39072,0.6206 l 29.97975,0 0,-75.76769 z m 403.17028,75.15819 c 21.87698,-1.9361 39.52638,-15.2216 45.92608,-34.57137 l 1.4731,-4.45375 0.1778,-86.35044 0.178,-86.35039 -2.432,0.3629 c -2.6638,0.39751 -73.13234,9.92241 -122.08257,16.50134 -17.00838,2.28595 -30.98224,4.22239 -31.05308,4.30323 -0.17692,0.20197 -2.24012,168.11228 -2.22269,180.88668 l 0.0149,10.2813 51.57249,-4e-4 c 30.16896,-4e-4 54.42637,-0.2531 58.44895,-0.6091 z M 50.990535,936.40745 c 39.13996,-8.47359 54.691325,-11.84914 124.859705,-27.10205 34.07297,-7.40665 86.66732,-18.83102 116.87634,-25.3875 30.20901,-6.55649 66.56522,-14.45965 80.79156,-17.56262 14.22633,-3.10295 43.54122,-9.47567 65.14418,-14.1616 l 39.27811,-8.51989 0.16839,-19.8253 0.1684,-19.82527 -1.44567,0.43319 c -0.79512,0.23826 -3.74488,1.03193 -6.55504,1.76368 -5.7095,1.48676 -46.23768,12.15761 -78.87555,20.7675 -26.40013,6.96437 -102.00289,26.88844 -149.44843,39.38512 -19.49536,5.13488 -40.90672,10.77932 -47.5808,12.54323 -6.67408,1.76391 -37.71339,9.94327 -68.97621,18.17635 -31.262804,8.23304 -66.325721,17.47494 -77.917554,20.53746 -11.591834,3.06254 -22.297514,5.87213 -23.790401,6.2435 l -2.714341,0.67527 0,9.25533 c 0,8.53867 0.08644,9.23068 1.11767,8.93681 0.614718,-0.17524 13.619605,-3.02519 28.899749,-6.33321 z M 32.146111,905.69359 C 89.523672,857.27391 147.99627,801.89052 196.03018,750.46782 259.68208,682.32534 317.63964,609.9092 367.09497,536.7278 c 4.23527,-6.26717 7.70049,-11.56738 7.70049,-11.77828 0,-0.21089 -70.19764,-0.31321 -155.99476,-0.22735 l -155.994792,0.15614 -4.429124,1.39901 c -9.883296,3.1218 -16.744599,7.09057 -23.167831,13.40093 -7.091263,6.96661 -11.261238,14.32538 -13.276087,23.42839 -0.841083,3.79994 -0.959749,25.83625 -0.959749,178.2149 l 0,173.87876 2.075673,-1.79059 c 1.141621,-0.98484 5.23542,-4.45707 9.097321,-7.71606 z M 247.38109,848.17466 c 31.26283,-9.55921 57.02257,-17.64906 57.24388,-17.97744 0.2213,-0.32839 4.51037,-11.89789 9.5313,-25.70999 5.02088,-13.81211 12.36639,-33.95787 16.32332,-44.76834 3.9569,-10.81046 7.09828,-19.74507 6.98077,-19.85473 -0.11751,-0.10965 -2.32713,1.51719 -4.9103,3.61516 -24.0568,19.538 -64.08213,47.38586 -101.22034,70.42463 l -10.30335,6.39172 -8.27742,9.93578 c -4.55258,5.46469 -13.2802,15.64731 -19.39472,22.62803 -6.11452,6.98075 -11.79246,13.47459 -12.6176,14.43078 l -1.50032,1.73857 5.65166,-1.73689 c 3.1084,-0.95527 31.23032,-9.55806 62.49312,-19.11728 z m 318.37397,-23.57497 c 18.79407,-4.08374 42.07459,-9.14507 51.73446,-11.24739 23.31056,-5.0732 104.51369,-22.71657 138.91039,-30.18171 81.86223,-17.76657 138.16125,-29.99529 199.90323,-43.421 28.45269,-6.18699 58.84546,-12.79193 67.53916,-14.67764 l 15.807,-3.42854 0,-32.71269 c 0,-30.87262 -0.063,-32.69573 -1.1175,-32.41087 -0.6148,0.1661 -20.5172,5.40041 -44.22788,11.63195 -23.71056,6.23153 -66.10217,17.38983 -94.20358,24.79618 -49.03232,12.92287 -65.45454,17.25159 -150.72577,39.72943 -21.07607,5.55574 -42.77483,11.2684 -48.21947,12.6948 -5.44466,1.42641 -37.05875,9.75497 -70.25354,18.50792 -33.19479,8.75296 -68.9762,18.17782 -79.51424,20.94414 -10.53803,2.76629 -20.09411,5.30753 -21.23572,5.64714 l -2.0757,0.61749 0,20.87873 0,20.87873 1.75404,-0.41083 c 0.96471,-0.22594 17.13101,-3.75208 35.92512,-7.83584 z m -234.70839,-2.00795 c 11.59185,-3.55895 25.16257,-7.71055 30.1572,-9.22573 4.9946,-1.5152 9.20818,-2.94679 9.36352,-3.18134 0.15541,-0.23453 4.64111,-18.79561 9.96844,-41.24682 5.32731,-22.4512 12.23784,-51.53803 15.35671,-64.63738 3.11887,-13.09934 5.59573,-23.88691 5.50415,-23.97239 -0.0916,-0.0854 -4.08599,3.92708 -8.87646,8.91678 -8.59747,8.95499 -31.40131,30.33977 -44.65885,41.87976 l -6.81597,5.93298 -4.77275,13.41022 c -2.62501,7.37562 -10.11978,28.09098 -16.65506,46.03414 -6.53527,17.94318 -11.88231,32.79015 -11.88231,32.99329 0,0.20316 0.50293,0.18893 1.11765,-0.0316 0.61473,-0.22056 10.60191,-3.31289 22.19373,-6.87185 z m 71.0436,-21.77336 c 25.00291,-7.6628 28.28848,-8.8114 28.56282,-9.98537 0.17052,-0.72961 3.49454,-30.02443 7.38672,-65.09959 3.89216,-35.07515 8.06212,-72.62373 9.26657,-83.4413 1.20446,-10.81758 2.36515,-21.41164 2.57932,-23.54237 l 0.38941,-3.87407 -6.92605,10.72817 c -10.08784,15.62561 -21.17117,30.37028 -34.18425,45.47696 l -4.77595,5.5443 -3.59912,15.01801 c -1.97952,8.25991 -8.93837,37.54716 -15.46412,65.0828 -6.52574,27.53563 -12.02692,50.66826 -12.22482,51.4058 -0.19799,0.73757 -0.11304,1.34202 0.18841,1.34323 0.30154,0.001 13.26199,-3.89424 28.80103,-8.65657 z m 54.13542,-16.5377 21.71474,-6.70628 0.086,-196.6772 c 0.0473,-108.17244 -0.0291,-196.27488 -0.16968,-195.78316 -0.41992,1.4679 -23.80052,211.84355 -23.56783,212.06068 0.11773,0.10986 2.43705,-2.43341 5.1539,-5.65182 6.61106,-7.83155 6.90436,-8.11439 6.05402,-5.838 -0.36996,0.99037 -3.4224,7.02473 -6.78318,13.40968 l -6.11054,11.60904 -1.20968,10.43016 c -0.66534,5.73659 -5.08929,45.43082 -9.83103,88.20938 -4.74171,42.77859 -8.77787,78.80512 -8.96926,80.05895 -0.30361,1.98889 -0.20353,2.23538 0.78488,1.93227 0.6231,-0.19112 10.9045,-3.36525 22.84759,-7.0537 z M 267.49915,771.27629 c 30.95275,-23.90969 59.87763,-47.63321 79.61115,-65.29515 l 4.56758,-4.08809 15.79713,-43.50868 c 27.58699,-75.9805 24.38788,-67.19172 64.74661,-177.87464 9.49568,-26.04171 17.1854,-47.42274 17.08827,-47.51338 -0.097,-0.0906 -2.00926,4.05113 -4.24915,9.20395 -46.43244,106.81701 -93.11222,193.567 -148.71944,276.38101 -13.80781,20.56356 -38.087,54.50688 -46.66881,65.24502 l -1.65272,2.06797 1.916,-1.26551 c 1.05383,-0.69605 8.95734,-6.70467 17.56338,-13.3525 z m 432.05927,-63.13088 c 74.50815,-21.64631 100.15745,-29.18508 131.0867,-38.52857 l 16.76505,-5.06458 0,-61.63052 0,-61.63053 -1.43701,-0.30243 c -0.79034,-0.16629 -11.92713,-2.16906 -24.74839,-4.4505 -12.82127,-2.28144 -62.20439,-11.13527 -109.7403,-19.67525 -47.5359,-8.53993 -86.83799,-15.52715 -87.33793,-15.52715 -0.78308,0 -0.90902,15.85902 -0.90902,114.47396 0,108.74263 0.0559,114.45859 1.11768,114.16656 0.61473,-0.16907 34.45617,-9.99305 75.20322,-21.83099 z M 379.54104,676.3148 c 23.99328,-23.10665 29.63855,-28.93711 30.34512,-31.34065 0.93084,-3.16641 63.55882,-267.31564 64.15463,-270.58829 0.30978,-1.70138 0.15946,-1.53655 -0.8151,0.89402 -0.96669,2.41094 -40.12152,109.63896 -62.02612,169.8627 -2.7423,7.53952 -14.66885,40.26044 -26.50349,72.71315 -28.14478,77.17802 -29.06066,79.69976 -29.06066,80.01362 0,0.86461 9.82283,-7.99218 23.90562,-21.55455 z m 559.08722,-39.73734 c 31.14851,-9.53527 66.54904,-20.37733 78.66774,-24.09344 l 22.0341,-6.75661 0.177,-18.96824 c 0.1447,-15.52737 -0.01,-19.83318 -0.8485,-23.73631 -2.0651,-9.60475 -7.1075,-18.00614 -15.0545,-25.08324 -6.0408,-5.37965 -12.3166,-8.80637 -21.3584,-11.66235 l -4.42902,-1.39901 -58.27851,-0.16689 -58.2785,-0.16708 0,64.68503 c 0,35.57674 0.16541,64.685 0.36751,64.685 0.20202,0 25.85265,-7.80159 57.00114,-17.33684 z m -515.14798,-4.56327 c 10.79262,-11.58419 26.27246,-28.82095 27.66686,-30.80694 0.59115,-0.84192 2.45984,-15.37586 5.67733,-44.15609 16.55779,-148.10897 20.79076,-186.3239 20.74311,-187.26749 -0.0616,-1.21921 -3.39407,12.57069 -22.86125,94.59962 -7.74062,32.61663 -20.2814,85.45286 -27.86846,117.41386 -16.39251,69.05482 -14.71473,61.66336 -13.88861,61.18689 0.36945,-0.21308 5.10843,-5.14951 10.53102,-10.96985 z m 423.92989,-147.95125 0,-22.63699 -1.43701,-0.31406 c -0.79034,-0.17263 -9.77162,-1.80147 -19.95838,-3.61944 -10.18677,-1.81795 -33.32252,-5.96144 -51.41281,-9.20773 -18.09027,-3.24629 -47.83627,-8.58176 -66.10218,-11.85661 -18.26593,-3.27485 -44.47624,-7.98001 -58.24511,-10.4559 -13.76891,-2.47589 -25.48394,-4.50161 -26.03344,-4.50161 -0.89163,0 -0.98108,2.41909 -0.83173,22.49433 l 0.16733,22.4943 91.96826,16.52197 c 50.58256,9.08706 100.73399,18.11581 111.44766,20.0639 10.71366,1.94808 19.69494,3.56738 19.95839,3.59841 0.26344,0.031 0.47899,-10.1302 0.47899,-22.58057 z"
       id="path4203" />
  </g>
</svg>
