<?xml version="1.0" encoding="utf-8"?>
<!-- Generator: Adobe Illustrator 16.0.0, SVG Export Plug-In . SVG Version: 6.00 Build 0)  -->
<!DOCTYPE svg PUBLIC "-//W3C//DTD SVG 1.1//EN" "http://www.w3.org/Graphics/SVG/1.1/DTD/svg11.dtd">
<svg version="1.1" id="Layer_1" xmlns="http://www.w3.org/2000/svg" xmlns:xlink="http://www.w3.org/1999/xlink" x="0px" y="0px"
	 width="473px" height="289px" viewBox="0 0 473 289" enable-background="new 0 0 473 289" xml:space="preserve">
<g>
	<path fill="#233645" d="M292.754,225.529H179.282v53.955l113.472-20.515V225.529z M292.754,225.529"/>
	<g>
		<defs>
			<rect id="SVGID_1_" x="11" y="14" width="450.537" height="266"/>
		</defs>
		<clipPath id="SVGID_2_">
			<use xlink:href="#SVGID_1_"  overflow="visible"/>
		</clipPath>
		<path clip-path="url(#SVGID_2_)" fill="#233645" d="M46.239,188.148h35.814c26.435-10.831,51.423-25.207,74.031-42.644
			c5.518-4.258,10.893-8.688,16.12-13.281v-15.93c-31.952,30.138-70.331,53.264-111.949,67.456
			C55.62,185.331,50.946,186.796,46.239,188.148L46.239,188.148z M46.239,188.148"/>
		<path clip-path="url(#SVGID_2_)" fill="#233645" d="M456.073,188.561c-1.396-0.795-40.797-23.661-52.302-31.418
			c-18.301-12.34-35.686-25.885-51.509-41.293c-3.847-3.744-7.606-7.592-11.255-11.565c-18.779-20.437-35.093-43.042-48.254-67.491
			V14h-14.059v19.584h-10.549V29.02c0-1.073-0.364-1.91-0.934-2.513c-1.459-1.544-4.261-1.544-5.723,0
			c-0.569,0.603-0.934,1.44-0.934,2.513v4.564h-21.756V29.02c0-1.073-0.363-1.91-0.934-2.513c-1.459-1.544-4.264-1.544-5.722,0
			c-0.569,0.603-0.933,1.44-0.933,2.513v4.564h-21.756V29.02c0-1.073-0.367-1.91-0.935-2.513c-1.459-1.544-4.263-1.544-5.721,0
			c-0.569,0.603-0.933,1.44-0.933,2.513v4.564h-8.137c-0.123-0.121-0.253-0.23-0.39-0.337V14h-14.059v31.025
			c-0.346,0.525-0.69,1.05-1.043,1.573c-17.164,22.71-36.171,44.033-56.752,63.709c-19.226,17.101-39.987,32.58-61.144,47.035
			c-14.802,10.116-29.893,19.802-45.029,29.409c-2.73,1.729-4.385,4.737-4.385,7.97v14.293c0,5.212,4.225,9.437,9.437,9.437h431.297
			c5.211,0,9.437-4.225,9.437-9.437v-12.111C461.1,193.406,459.116,190.286,456.073,188.561L456.073,188.561z M179.282,109.402
			v85.823H23.958c0.171-0.11,1.357-0.864,2.415-1.536c0.509-0.325,0.988-0.632,1.311-0.837
			c30.366-19.368,60.54-39.408,88.297-62.332c13.393-11.059,26.226-22.783,38.241-35.437c7.568-7.969,14.772-16.307,21.525-24.99
			c1.194-1.537,2.371-3.088,3.539-4.645v43.953H179.282z M263.158,195.226h-54.277v-94.462c0-5.516,1.649-10.645,4.479-14.928
			c15.615,15.526,32.27,29.972,49.799,43.291V195.226z M263.158,114.321c-14.471-11.415-28.26-23.698-41.327-36.689
			c4.129-2.541,8.985-4.007,14.188-4.007c14.988,0,27.139,12.149,27.139,27.139V114.321z M292.754,195.226v-45.249
			c18.798,12.177,38.546,22.789,59.644,30.548c17.014,6.26,34.57,10.769,52.269,14.644L292.754,195.226z M353.069,168.235
			c-11.478-4.308-22.548-9.616-33.268-15.586c-8.021-4.468-15.851-9.308-23.509-14.381c-1.184-0.785-2.363-1.575-3.539-2.371V60.318
			c19.703,31.632,44.717,59.795,72.856,84.242c6.88,6.25,13.989,12.249,21.319,17.973c11.013,8.601,22.626,16.974,34.979,23.851
			c0.284,0.18,0.565,0.366,0.851,0.546C399.16,182.116,375.654,176.709,353.069,168.235L353.069,168.235z M353.069,168.235"/>
	</g>
</g>
</svg>
